<?xml version="1.0" encoding="UTF-8"?>
<svg width="3500px" height="3500px" viewBox="0 0 3500 3500" version="1.1" xmlns="http://www.w3.org/2000/svg" xmlns:xlink="http://www.w3.org/1999/xlink">
    <title>hubble-colorful</title>
    <defs>
        <path d="M693.62069,0 C722.000623,0 745,25.7230622 745,57.4460446 L745,400 L0,400 L0,57.4460446 C0,25.7230622 23.0065134,0 51.3793103,0 L693.62069,0 Z" id="path-1"></path>
        <path d="M693.62069,0 C722.000623,0 745,25.7230622 745,57.4460446 L745,400 L0,400 L0,57.4460446 C0,25.7230622 23.0065134,0 51.3793103,0 L693.62069,0 Z" id="path-3"></path>
        <path d="M693.62069,4.2746251e-11 C727.873563,17.1487081 745,36.2973897 745,57.4460446 L745,396 C745,398.209139 743.209139,400 741,400 L4,400 C1.790861,400 2.705415e-16,398.209139 0,396 L0,57.4460446 L0,57.4460446 C0,25.7230622 23.0065134,4.2746251e-11 51.3793103,4.2746251e-11 L693.62069,4.2746251e-11 Z" id="path-5"></path>
    </defs>
    <g id="hubble-colorful" stroke="none" stroke-width="1" fill="none" fill-rule="evenodd">
        <rect fill="#009191" x="0" y="0" width="3500" height="3500"></rect>
        <g id="编组-4" transform="translate(541.000000, 542.500000)">
            <g id="编组-3" transform="translate(1154.869587, 1154.869587) rotate(-45.000000) translate(-1154.869587, -1154.869587) translate(-38.362646, 714.869587)">
                <path d="M1194,196 C1017.26888,196 874,339.26888 874,516 C874,692.73112 1017.26888,836 1194,836 C1370.73112,836 1514,692.73112 1514,516 C1514,339.26888 1370.73112,196 1194,196 Z M1194,356 C1282.36556,356 1354,427.63444 1354,516 C1354,604.36556 1282.36556,676 1194,676 C1105.63444,676 1034,604.36556 1034,516 C1034,427.63444 1105.63444,356 1194,356 Z" id="椭圆形" fill="#FFFFFF" fill-rule="nonzero"></path>
                <g id="编组-2" transform="translate(-0.000000, 0.000000)">
                    <g id="Fill-3-Clipped">
                        <mask id="mask-2" fill="white">
                            <use xlink:href="#path-1"></use>
                        </mask>
                        <use id="path-3" fill="#FBCB67" xlink:href="#path-1"></use>
                    </g>
                    <g id="编组备份-2" transform="translate(1641.464466, 0.707107)">
                        <g id="Fill-3-Clipped" transform="translate(0.000000, -0.000000)">
                            <mask id="mask-4" fill="white">
                                <use xlink:href="#path-3"></use>
                            </mask>
                            <use id="path-3" fill="#F29A71" xlink:href="#path-3"></use>
                        </g>
                    </g>
                    <g id="Fill-3-Clipped" transform="translate(1192.878680, 680.000000) scale(1, -1) translate(-1192.878680, -680.000000) translate(0.000000, 480.000000)">
                        <mask id="mask-6" fill="white">
                            <use xlink:href="#path-5"></use>
                        </mask>
                        <use id="path-3" fill="#FBCB67" xlink:href="#path-5"></use>
                        <path d="M2334.37805,0 C2362.75798,0 2385.75736,25.7230622 2385.75736,57.4460446 L2385.75736,400 L1640.75736,400 L1640.75736,57.4460446 C1640.75736,25.7230622 1663.76387,0 1692.13667,0 L2334.37805,0 Z" id="path-3备份" fill="#F29A71"></path>
                    </g>
                </g>
            </g>
        </g>
        <g id="椭圆形备份-+-椭圆形备份-2-蒙版" transform="translate(1784.849584, 1778.373865)" fill="#FFFFFF">
            <path d="M891.696792,571.154348 L892.738974,573.336246 C911.644572,612.916747 894.884252,660.329098 855.303751,679.234696 C854.199882,679.761958 853.083978,680.263646 851.956923,680.739334 C850.970587,681.155655 850.007474,681.55866 849.067584,681.948349 C733.263557,729.962049 606.73985,757.338137 474.084129,759.488948 L457.150416,759.626135 C347.188506,759.626135 241.274811,742.293668 141.992282,710.211686 C135.85294,708.22783 128.921297,705.844292 121.197353,703.061073 C82.5210195,689.124552 62.4654143,646.473418 76.4019127,607.797077 C77.2412812,605.467675 78.1963515,603.181604 79.2635615,600.947389 C98.6108016,560.443754 145.569563,541.274401 187.734823,556.667612 C189.873689,557.448444 191.301145,557.954172 192.017192,558.184797 C275.561055,585.092654 364.658498,599.626135 457.150416,599.626135 C575.490831,599.626135 688.274361,575.834284 790.978688,532.772904 C790.978688,532.772904 790.978688,532.772904 790.978688,532.772904 C829.414747,516.657616 873.733445,533.546486 891.696792,571.154348 Z M755.088899,285.162087 C773.854165,324.448407 757.218564,371.508516 717.932244,390.273782 C716.640662,390.890712 715.332517,391.47235 714.009275,392.018077 C704.869183,395.787384 696.71445,398.923148 689.545074,401.42537 C620.258946,425.607282 546.043493,439.279443 468.80888,440.531685 L457.150416,440.626135 C401.105176,440.626135 346.587386,434.086339 294.318533,421.728234 C292.48727,421.295263 280.580737,417.472392 258.598932,410.259621 C221.560117,398.106263 201.386457,358.228135 213.539803,321.189317 C214.483132,318.314408 215.610345,315.503131 216.914466,312.772886 C236.134351,272.535066 281.601657,252.059537 324.470797,264.336467 C324.939104,264.470582 325.310803,264.571734 325.585897,264.639924 C364.923831,274.391012 405.948148,279.869079 448.137845,280.55312 L457.150416,280.626135 C521.89682,280.626135 584.006201,269.335702 641.617145,248.616253 C644.745716,247.49108 648.110435,246.208932 651.711303,244.769808 C691.430583,228.895608 736.652906,246.565123 755.088899,285.162087 Z" id="形状" transform="translate(486.243532, 486.243532) rotate(-45.000000) translate(-486.243532, -486.243532) "></path>
        </g>
    </g>
</svg>